<svg width="55" height="32" viewBox="0 0 55 32" fill="none" xmlns="http://www.w3.org/2000/svg">
<mask id="path-1-outside-1_55_8" maskUnits="userSpaceOnUse" x="-1" y="-1" width="57" height="34" fill="black">
<rect fill="white" x="-1" y="-1" width="57" height="34"/>
<path d="M11.1307 31.6364C9.28409 31.6364 7.69792 31.3854 6.37216 30.8835C5.0464 30.3911 3.98106 29.7282 3.17614 28.8949C2.37121 28.0616 1.8125 27.1383 1.5 26.125L6.13068 25.0028C6.33902 25.429 6.64205 25.8504 7.03977 26.267C7.4375 26.6932 7.97254 27.0436 8.64489 27.3182C9.3267 27.6023 10.1837 27.7443 11.2159 27.7443C12.6742 27.7443 13.8816 27.3892 14.8381 26.679C15.7945 25.9782 16.2727 24.8229 16.2727 23.2131V19.0795H16.017C15.7519 19.6098 15.3636 20.1544 14.8523 20.7131C14.3504 21.2718 13.6828 21.7405 12.8494 22.1193C12.0256 22.4981 10.9886 22.6875 9.73864 22.6875C8.0625 22.6875 6.54261 22.2945 5.17898 21.5085C3.82481 20.7131 2.74527 19.5294 1.94034 17.9574C1.14489 16.3759 0.747159 14.3968 0.747159 12.0199C0.747159 9.62405 1.14489 7.60227 1.94034 5.95455C2.74527 4.29735 3.82955 3.04261 5.19318 2.19034C6.55682 1.3286 8.0767 0.897727 9.75284 0.897727C11.0313 0.897727 12.0824 1.11553 12.9062 1.55114C13.7396 1.97727 14.4025 2.49337 14.8949 3.09943C15.3873 3.69602 15.7614 4.25947 16.017 4.78977H16.3011V1.18182H21.3722V23.3551C21.3722 25.2206 20.9271 26.7642 20.0369 27.9858C19.1468 29.2074 17.9299 30.1212 16.3864 30.7273C14.8428 31.3333 13.0909 31.6364 11.1307 31.6364ZM11.1733 18.6534C12.2623 18.6534 13.1903 18.3883 13.9574 17.858C14.7244 17.3277 15.3068 16.5653 15.7045 15.571C16.1023 14.5767 16.3011 13.3835 16.3011 11.9915C16.3011 10.6184 16.1023 9.41572 15.7045 8.38352C15.3163 7.35133 14.7386 6.55114 13.9716 5.98295C13.214 5.4053 12.2813 5.11648 11.1733 5.11648C10.0275 5.11648 9.07102 5.41477 8.30398 6.01136C7.53693 6.60795 6.95928 7.42708 6.57102 8.46875C6.18277 9.50095 5.98864 10.6752 5.98864 11.9915C5.98864 13.3267 6.18277 14.4962 6.57102 15.5C6.96875 16.4943 7.55114 17.2708 8.31818 17.8295C9.0947 18.3788 10.0464 18.6534 11.1733 18.6534Z"/>
<path d="M39.7314 23V27.1051H20.9388V23H39.7314ZM54.0423 23V27.1051H35.2497V23H54.0423Z"/>
</mask>
<path d="M11.1307 31.6364C9.28409 31.6364 7.69792 31.3854 6.37216 30.8835C5.0464 30.3911 3.98106 29.7282 3.17614 28.8949C2.37121 28.0616 1.8125 27.1383 1.5 26.125L6.13068 25.0028C6.33902 25.429 6.64205 25.8504 7.03977 26.267C7.4375 26.6932 7.97254 27.0436 8.64489 27.3182C9.3267 27.6023 10.1837 27.7443 11.2159 27.7443C12.6742 27.7443 13.8816 27.3892 14.8381 26.679C15.7945 25.9782 16.2727 24.8229 16.2727 23.2131V19.0795H16.017C15.7519 19.6098 15.3636 20.1544 14.8523 20.7131C14.3504 21.2718 13.6828 21.7405 12.8494 22.1193C12.0256 22.4981 10.9886 22.6875 9.73864 22.6875C8.0625 22.6875 6.54261 22.2945 5.17898 21.5085C3.82481 20.7131 2.74527 19.5294 1.94034 17.9574C1.14489 16.3759 0.747159 14.3968 0.747159 12.0199C0.747159 9.62405 1.14489 7.60227 1.94034 5.95455C2.74527 4.29735 3.82955 3.04261 5.19318 2.19034C6.55682 1.3286 8.0767 0.897727 9.75284 0.897727C11.0313 0.897727 12.0824 1.11553 12.9062 1.55114C13.7396 1.97727 14.4025 2.49337 14.8949 3.09943C15.3873 3.69602 15.7614 4.25947 16.017 4.78977H16.3011V1.18182H21.3722V23.3551C21.3722 25.2206 20.9271 26.7642 20.0369 27.9858C19.1468 29.2074 17.9299 30.1212 16.3864 30.7273C14.8428 31.3333 13.0909 31.6364 11.1307 31.6364ZM11.1733 18.6534C12.2623 18.6534 13.1903 18.3883 13.9574 17.858C14.7244 17.3277 15.3068 16.5653 15.7045 15.571C16.1023 14.5767 16.3011 13.3835 16.3011 11.9915C16.3011 10.6184 16.1023 9.41572 15.7045 8.38352C15.3163 7.35133 14.7386 6.55114 13.9716 5.98295C13.214 5.4053 12.2813 5.11648 11.1733 5.11648C10.0275 5.11648 9.07102 5.41477 8.30398 6.01136C7.53693 6.60795 6.95928 7.42708 6.57102 8.46875C6.18277 9.50095 5.98864 10.6752 5.98864 11.9915C5.98864 13.3267 6.18277 14.4962 6.57102 15.5C6.96875 16.4943 7.55114 17.2708 8.31818 17.8295C9.0947 18.3788 10.0464 18.6534 11.1733 18.6534Z" fill="white"/>
<path d="M39.7314 23V27.1051H20.9388V23H39.7314ZM54.0423 23V27.1051H35.2497V23H54.0423Z" fill="#22B35B"/>
<path d="M6.37216 30.8835L6.72622 29.9483L6.72035 29.9461L6.37216 30.8835ZM3.17614 28.8949L3.8954 28.2001L3.8954 28.2001L3.17614 28.8949ZM1.5 26.125L1.26449 25.1531L0.231024 25.4036L0.544414 26.4197L1.5 26.125ZM6.13068 25.0028L7.02907 24.5636L6.67613 23.8417L5.89517 24.031L6.13068 25.0028ZM7.03977 26.267L7.77087 25.5847L7.76313 25.5766L7.03977 26.267ZM8.64489 27.3182L9.02951 26.3951L9.02301 26.3924L8.64489 27.3182ZM14.8381 26.679L14.247 25.8723L14.2419 25.8761L14.8381 26.679ZM16.2727 19.0795H17.2727V18.0795H16.2727V19.0795ZM16.017 19.0795V18.0795H15.399L15.1226 18.6323L16.017 19.0795ZM14.8523 20.7131L14.1146 20.0379L14.1084 20.0448L14.8523 20.7131ZM12.8494 22.1193L12.4356 21.2089L12.4317 21.2107L12.8494 22.1193ZM5.17898 21.5085L4.67247 22.3708L4.6796 22.3749L5.17898 21.5085ZM1.94034 17.9574L1.04696 18.4067L1.05024 18.4132L1.94034 17.9574ZM1.94034 5.95455L1.04083 5.51764L1.03979 5.5198L1.94034 5.95455ZM5.19318 2.19034L5.72319 3.03835L5.7274 3.03569L5.19318 2.19034ZM12.9062 1.55114L12.4388 2.43525L12.451 2.44148L12.9062 1.55114ZM14.8949 3.09943L14.1187 3.73004L14.1237 3.736L14.8949 3.09943ZM16.017 4.78977L15.1163 5.22407L15.389 5.78977H16.017V4.78977ZM16.3011 4.78977V5.78977H17.3011V4.78977H16.3011ZM16.3011 1.18182V0.181818H15.3011V1.18182H16.3011ZM21.3722 1.18182H22.3722V0.181818H21.3722V1.18182ZM20.0369 27.9858L20.8451 28.5747L20.8451 28.5747L20.0369 27.9858ZM16.3864 30.7273L16.7518 31.6581L16.7518 31.6581L16.3864 30.7273ZM13.9574 17.858L13.3887 17.0354L13.3887 17.0354L13.9574 17.858ZM15.7045 8.38352L14.7685 8.7356L14.7714 8.74308L15.7045 8.38352ZM13.9716 5.98295L13.3652 6.77823L13.3764 6.78651L13.9716 5.98295ZM8.30398 6.01136L7.69004 5.22201L7.69004 5.22201L8.30398 6.01136ZM6.57102 8.46875L7.507 8.82082L7.50805 8.81801L6.57102 8.46875ZM6.57102 15.5L5.6383 15.8608L5.64255 15.8714L6.57102 15.5ZM8.31818 17.8295L7.72936 18.6379L7.74072 18.646L8.31818 17.8295ZM11.1307 30.6364C9.37033 30.6364 7.91037 30.3966 6.72621 29.9483L6.01811 31.8187C7.48546 32.3742 9.19785 32.6364 11.1307 32.6364V30.6364ZM6.72035 29.9461C5.50449 29.4945 4.57596 28.9047 3.8954 28.2001L2.45688 29.5896C3.38616 30.5517 4.58831 31.2877 6.02397 31.8209L6.72035 29.9461ZM3.8954 28.2001C3.18927 27.4691 2.71763 26.68 2.45559 25.8303L0.544414 26.4197C0.907368 27.5966 1.55316 28.654 2.45688 29.5896L3.8954 28.2001ZM1.73551 27.0969L6.3662 25.9747L5.89517 24.031L1.26449 25.1531L1.73551 27.0969ZM5.2323 25.4421C5.49419 25.9777 5.86244 26.4819 6.31642 26.9575L7.76313 25.5766C7.42165 25.2188 7.18385 24.8802 7.02907 24.5636L5.2323 25.4421ZM6.30872 26.9494C6.82626 27.5039 7.49258 27.9277 8.26676 28.2439L9.02301 26.3924C8.4525 26.1594 8.04874 25.8825 7.77083 25.5847L6.30872 26.9494ZM8.26027 28.2413C9.1021 28.592 10.1005 28.7443 11.2159 28.7443V26.7443C10.2669 26.7443 9.55131 26.6125 9.0295 26.3951L8.26027 28.2413ZM11.2159 28.7443C12.8398 28.7443 14.2697 28.3466 15.4342 27.4818L14.2419 25.8761C13.4935 26.4318 12.5086 26.7443 11.2159 26.7443V28.7443ZM15.4291 27.4856C16.7281 26.5339 17.2727 25.0183 17.2727 23.2131H15.2727C15.2727 24.6276 14.8609 25.4225 14.2471 25.8723L15.4291 27.4856ZM17.2727 23.2131V19.0795H15.2727V23.2131H17.2727ZM16.2727 18.0795H16.017V20.0795H16.2727V18.0795ZM15.1226 18.6323C14.9085 19.0605 14.5798 19.5296 14.1146 20.0379L15.5899 21.3882C16.1475 20.7791 16.5953 20.1592 16.9115 19.5268L15.1226 18.6323ZM14.1084 20.0448C13.7165 20.481 13.1702 20.875 12.4356 21.209L13.2632 23.0297C14.1953 22.606 14.9843 22.0625 15.5962 21.3813L14.1084 20.0448ZM12.4317 21.2107C11.7786 21.511 10.8957 21.6875 9.73864 21.6875V23.6875C11.0816 23.6875 12.2725 23.4852 13.2672 23.0279L12.4317 21.2107ZM9.73864 21.6875C8.226 21.6875 6.88022 21.3349 5.67835 20.6421L4.6796 22.3749C6.20501 23.2541 7.899 23.6875 9.73864 23.6875V21.6875ZM5.68547 20.6463C4.51503 19.9587 3.55984 18.9261 2.83044 17.5016L1.05024 18.4132C1.93069 20.1326 3.13459 21.4674 4.67248 22.3708L5.68547 20.6463ZM2.8337 17.508C2.12817 16.1054 1.74716 14.2918 1.74716 12.0199H-0.252841C-0.252841 14.5018 0.161605 16.6465 1.04699 18.4067L2.8337 17.508ZM1.74716 12.0199C1.74716 9.7299 2.12789 7.86623 2.84089 6.38929L1.03979 5.5198C0.161885 7.33831 -0.252841 9.5182 -0.252841 12.0199H1.74716ZM2.83985 6.39145C3.57491 4.87809 4.54108 3.77715 5.72318 3.03834L4.66318 1.34234C3.11801 2.30807 1.91562 3.71661 1.04083 5.51764L2.83985 6.39145ZM5.7274 3.03569C6.92472 2.27905 8.25804 1.89773 9.75284 1.89773V-0.102273C7.89537 -0.102273 6.18892 0.378148 4.65897 1.34499L5.7274 3.03569ZM9.75284 1.89773C10.9259 1.89773 11.8025 2.09872 12.4388 2.43517L13.3737 0.6671C12.3623 0.132341 11.1366 -0.102273 9.75284 -0.102273V1.89773ZM12.451 2.44148C13.1846 2.81664 13.7297 3.25115 14.1188 3.73002L15.671 2.46884C15.0752 1.73559 14.2946 1.1379 13.3615 0.660792L12.451 2.44148ZM14.1237 3.736C14.5799 4.28877 14.9044 4.78466 15.1163 5.22407L16.9178 4.35547C16.6183 3.73428 16.1947 3.10328 15.6661 2.46287L14.1237 3.736ZM16.017 5.78977H16.3011V3.78977H16.017V5.78977ZM17.3011 4.78977V1.18182H15.3011V4.78977H17.3011ZM16.3011 2.18182H21.3722V0.181818H16.3011V2.18182ZM20.3722 1.18182V23.3551H22.3722V1.18182H20.3722ZM20.3722 23.3551C20.3722 25.0593 19.9675 26.383 19.2287 27.3969L20.8451 28.5747C21.8866 27.1454 22.3722 25.3819 22.3722 23.3551H20.3722ZM19.2287 27.3969C18.4614 28.4499 17.4052 29.2529 16.0209 29.7965L16.7518 31.6581C18.4547 30.9895 19.8322 29.9649 20.8451 28.5747L19.2287 27.3969ZM16.0209 29.7965C14.6129 30.3493 12.9882 30.6364 11.1307 30.6364V32.6364C13.1937 32.6364 15.0727 32.3174 16.7518 31.6581L16.0209 29.7965ZM11.1733 19.6534C12.4305 19.6534 13.5652 19.3448 14.5261 18.6805L13.3887 17.0354C12.8155 17.4317 12.0942 17.6534 11.1733 17.6534V19.6534ZM14.5261 18.6805C15.4778 18.0225 16.1734 17.0914 16.633 15.9424L14.7761 15.1996C14.4402 16.0393 13.9711 16.6328 13.3887 17.0354L14.5261 18.6805ZM16.633 15.9424C17.0898 14.8004 17.3011 13.4744 17.3011 11.9915H15.3011C15.3011 13.2926 15.1147 14.353 14.7761 15.1996L16.633 15.9424ZM17.3011 11.9915C17.3011 10.524 17.0888 9.19486 16.6377 8.02397L14.7714 8.74308C15.1157 9.63658 15.3011 10.7127 15.3011 11.9915H17.3011ZM16.6405 8.03146C16.1953 6.84774 15.5114 5.87909 14.5668 5.1794L13.3764 6.78651C13.9659 7.22318 14.4373 7.85491 14.7686 8.73559L16.6405 8.03146ZM14.5779 5.18775C13.6187 4.45636 12.4632 4.11648 11.1733 4.11648V6.11648C12.0993 6.11648 12.8093 6.35424 13.3652 6.77816L14.5779 5.18775ZM11.1733 4.11648C9.84647 4.11648 8.6627 4.46549 7.69004 5.22201L8.91792 6.80071C9.47935 6.36405 10.2085 6.11648 11.1733 6.11648V4.11648ZM7.69004 5.22201C6.75641 5.94816 6.07751 6.92958 5.634 8.11949L7.50805 8.81801C7.84105 7.92459 8.31745 7.26775 8.91792 6.80071L7.69004 5.22201ZM5.63505 8.11669C5.19714 9.28089 4.98864 10.5776 4.98864 11.9915H6.98864C6.98864 10.7727 7.1684 9.721 7.507 8.82081L5.63505 8.11669ZM4.98864 11.9915C4.98864 13.4214 5.19632 14.7179 5.63836 15.8607L7.50369 15.1393C7.16922 14.2745 6.98864 13.232 6.98864 11.9915H4.98864ZM5.64255 15.8714C6.10092 17.0173 6.79138 17.9546 7.72942 18.6378L8.90695 17.0212C8.3109 16.5871 7.83658 15.9713 7.4995 15.1286L5.64255 15.8714ZM7.74072 18.646C8.71551 19.3354 9.87876 19.6534 11.1733 19.6534V17.6534C10.214 17.6534 9.47389 17.4221 8.89565 17.0131L7.74072 18.646ZM39.7314 23H40.7314V22H39.7314V23ZM39.7314 27.1051V28.1051H40.7314V27.1051H39.7314ZM20.9388 27.1051H19.9388V28.1051H20.9388V27.1051ZM20.9388 23V22H19.9388V23H20.9388ZM38.7314 23V27.1051H40.7314V23H38.7314ZM39.7314 26.1051H20.9388V28.1051H39.7314V26.1051ZM21.9388 27.1051V23H19.9388V27.1051H21.9388ZM20.9388 24H39.7314V22H20.9388V24ZM54.0423 23H55.0423V22H54.0423V23ZM54.0423 27.1051V28.1051H55.0423V27.1051H54.0423ZM35.2497 27.1051H34.2497V28.1051H35.2497V27.1051ZM35.2497 23V22H34.2497V23H35.2497ZM53.0423 23V27.1051H55.0423V23H53.0423ZM54.0423 26.1051H35.2497V28.1051H54.0423V26.1051ZM36.2497 27.1051V23H34.2497V27.1051H36.2497ZM35.2497 24H54.0423V22H35.2497V24Z" fill="black" mask="url(#path-1-outside-1_55_8)"/>
</svg>
